<svg width="31" height="39" viewBox="0 0 31 39" fill="none" xmlns="http://www.w3.org/2000/svg">
<path d="M9.82516 12.1004C-2.07186 10.8909 -0.563111 3.52763 1.17857 0C3.0396 3.40323 12.6143 5.29391 18.2074 6.42832C38.7056 10.5859 24.4903 21.5437 24.8922 21.1658C29.3134 12.8506 9.82516 12.4783 9.82516 12.1004Z" fill="#7F3F98"/>
<path d="M15.342 26.1505C-1.74885 24.4999 -0.817622 16.9346 1.78435 13.3582C3.09902 17.98 13.0139 19.6856 17.807 19.9607C33.2546 20.9511 31.7629 30.9485 29.3196 34.2062C24.5784 40.5279 9.89841 38.5654 9.69338 38.5301C-1.81008 36.5494 -0.543724 30.8273 0.962682 27.3885C10.8228 35.6416 27.6908 34.2062 28.538 33.3956C33.5341 28.6152 15.7528 26.1505 15.342 26.1505Z" fill="#87C76E"/>
</svg>
