<svg width="25" height="27" viewBox="0 0 25 27" fill="none" xmlns="http://www.w3.org/2000/svg">
<path d="M11.698 27C12.1909 26.9882 12.6639 26.7961 13.0333 26.4576C13.4028 26.119 13.6449 25.656 13.7168 25.1502H9.60095C9.67488 25.6697 9.92828 26.1437 10.314 26.4839C10.6998 26.8242 11.1916 27.0076 11.698 27V27Z" fill="#C4C4C4"/>
<path d="M23.0516 21.767C22.2971 21.0695 21.6365 20.27 21.0876 19.3899C20.4884 18.175 20.1293 16.8483 20.0313 15.4876V11.4798C20.0281 10.993 19.9862 10.5073 19.9061 10.0276C19.2902 9.89995 18.6983 9.66981 18.1534 9.34611C18.3611 10.0396 18.4666 10.7617 18.4664 11.4879V15.4957C18.5623 17.1556 19.0027 18.7745 19.7574 20.2418C20.2977 21.1293 20.9386 21.9464 21.6667 22.6756H1.62754C2.35556 21.9464 2.99656 21.1293 3.53678 20.2418C4.29156 18.7745 4.73195 17.1556 4.82786 15.4957V11.4798C4.82374 10.5409 4.99829 9.61035 5.3415 8.74147C5.68472 7.87259 6.18987 7.08244 6.82803 6.41626C7.46618 5.75008 8.2248 5.22096 9.06046 4.85919C9.89612 4.49742 10.7924 4.31011 11.698 4.30799C13.0233 4.30909 14.3189 4.71546 15.4225 5.47625C15.3009 5.01299 15.2326 4.53641 15.2191 4.05649V3.54538C14.4021 3.12866 13.5244 2.85455 12.6213 2.73409V1.71186C12.6213 1.42461 12.5112 1.14913 12.3153 0.946009C12.1194 0.742894 11.8537 0.628784 11.5767 0.628784C11.2996 0.628784 11.0339 0.742894 10.838 0.946009C10.6421 1.14913 10.5321 1.42461 10.5321 1.71186V2.77465C8.50995 3.07041 6.65929 4.1147 5.32177 5.71472C3.98425 7.31473 3.25018 9.36245 3.25509 11.4798V15.4876C3.15709 16.8483 2.79795 18.175 2.19875 19.3899C1.65953 20.268 1.00954 21.0674 0.266041 21.767C0.182576 21.843 0.115682 21.9366 0.0698102 22.0415C0.0239386 22.1464 0.000140686 22.2603 0 22.3754V23.4788C0 23.694 0.0824388 23.9003 0.229181 24.0525C0.375923 24.2046 0.574948 24.2901 0.782473 24.2901H22.5352C22.7427 24.2901 22.9418 24.2046 23.0885 24.0525C23.2352 23.9003 23.3177 23.694 23.3177 23.4788V22.3754C23.3175 22.2603 23.2937 22.1464 23.2479 22.0415C23.202 21.9366 23.1351 21.843 23.0516 21.767V21.767Z" fill="#C4C4C4"/>
<path d="M21.0877 8.11291C23.2484 8.11291 25 6.29678 25 4.05646C25 1.81614 23.2484 0 21.0877 0C18.9269 0 17.1753 1.81614 17.1753 4.05646C17.1753 6.29678 18.9269 8.11291 21.0877 8.11291Z" fill="#87C76E"/>
</svg>
