<svg width="46" height="40" viewBox="0 0 46 40" fill="none" xmlns="http://www.w3.org/2000/svg">
<path d="M31.8182 31.7046C37.4665 31.7046 42.0455 27.1257 42.0455 21.4773C42.0455 15.8289 37.4665 11.25 31.8182 11.25C26.1698 11.25 21.5909 15.8289 21.5909 21.4773C21.5909 27.1257 26.1698 31.7046 31.8182 31.7046Z" fill="#BEA4C9"/>
<path d="M18.6818 21.4773C18.6818 14.2534 24.5943 8.34094 31.8182 8.34094C39.042 8.34094 44.9546 14.2534 44.9546 21.4773C44.9546 28.7012 39.042 34.6137 31.8182 34.6137C24.5943 34.6137 18.6818 28.7012 18.6818 21.4773ZM22.2273 21.4773C22.2273 26.7534 26.542 31.0682 31.8182 31.0682C37.0943 31.0682 41.4091 26.7534 41.4091 21.4773C41.4091 16.2012 37.0943 11.8864 31.8182 11.8864C26.542 11.8864 22.2273 16.2012 22.2273 21.4773Z" fill="white" stroke="#7F3F98"/>
<path d="M24.3182 19.2045L17.9545 0L10.9091 25.6818L8.40909 19.2045H0V23.75H5.22727L11.8182 40L18.4091 15.6818L21.1364 23.75H29.5455V19.2045H24.3182Z" fill="#7F3F98"/>
<path d="M31.8182 26.0227C34.3286 26.0227 36.3636 23.9876 36.3636 21.4773C36.3636 18.9669 34.3286 16.9318 31.8182 16.9318C29.3078 16.9318 27.2727 18.9669 27.2727 21.4773C27.2727 23.9876 29.3078 26.0227 31.8182 26.0227Z" fill="#7F3F98"/>
</svg>
