<svg width="116" height="101" viewBox="0 0 116 101" fill="none" xmlns="http://www.w3.org/2000/svg">
<path d="M22.3426 58.881L22.3508 58.8396L22.3577 58.798C23.7277 50.5017 27.4018 43.5827 32.8936 38.689C38.2419 33.9462 45.148 31.3366 52.2963 31.3572H52.3035C58.5871 31.3572 64.4154 33.3037 69.1997 36.9636C72.9697 39.8874 75.9762 43.6801 77.9626 48.0179C78.3576 48.8831 78.9493 49.644 79.6904 50.2401C80.4316 50.8363 81.3019 51.251 82.2317 51.4514C87.6842 52.6278 92.2849 55.0548 95.6848 58.4417C99.8555 62.6108 102.107 68.1803 102.107 74.6679C102.107 81.385 99.4327 87.4748 94.586 91.8708L94.5834 91.8732C89.919 96.1157 83.5646 98.5 76.6517 98.5H23.8973C17.6737 98.5 12.5332 96.849 8.87793 93.9405C4.76432 90.6635 2.5 85.7713 2.5 79.5375C2.5 74.2043 4.4946 69.6751 8.23954 66.3133C11.2578 63.6041 15.4873 61.6433 20.1924 60.8823C20.3555 60.8619 20.6228 60.8113 20.9192 60.6767C21.3947 60.4607 21.7776 60.1083 22.0325 59.6837C22.2455 59.3287 22.3173 59.0075 22.3426 58.881Z" fill="#7CDCFF" stroke="white" stroke-width="5"/>
<path d="M95.5298 45.6431C93.0174 44.23 90.3546 43.1031 87.5911 42.2835C86.8222 42.0545 86.1718 41.5371 85.7758 40.8395C83.1667 36.1894 79.6478 32.1124 75.429 28.8516L75.4273 28.8503C71.9122 26.1564 67.9435 24.1132 63.7086 22.8173L63.7086 22.8173L63.7035 22.8158C63.6563 22.8019 63.614 22.775 63.5814 22.7381C63.5487 22.7013 63.5272 22.656 63.5191 22.6075C63.511 22.559 63.5167 22.5091 63.5356 22.4637C63.5464 22.4378 63.5613 22.4138 63.5796 22.3928L63.6377 22.352C67.1904 19.8579 71.4282 18.5248 75.769 18.5358L75.7697 18.5358C87.3155 18.5468 96.8069 27.9722 96.8928 39.5177V39.5178C96.9079 41.5036 96.6462 43.4817 96.1151 45.3952L96.1144 45.398C96.0984 45.457 96.0691 45.5116 96.0288 45.5576C95.9886 45.6036 95.9383 45.6397 95.882 45.6634C95.8256 45.687 95.7645 45.6975 95.7035 45.694C95.6425 45.6905 95.5831 45.6731 95.5298 45.6431Z" fill="#FFC106" stroke="white"/>
<path d="M111.821 42.7857H104.607C103.783 42.7857 102.993 42.4583 102.41 41.8756C101.827 41.2929 101.5 40.5026 101.5 39.6785C101.5 38.8544 101.827 38.0641 102.41 37.4814C102.993 36.8987 103.783 36.5714 104.607 36.5714H111.821C112.645 36.5714 113.436 36.8987 114.018 37.4814C114.601 38.0641 114.928 38.8544 114.928 39.6785C114.928 40.5026 114.601 41.2929 114.018 41.8756C113.436 42.4583 112.645 42.7857 111.821 42.7857Z" fill="#FFC106" stroke="white"/>
<path d="M75.7499 13.9286C74.9258 13.9286 74.1355 13.6012 73.5528 13.0185C72.9701 12.4358 72.6428 11.6455 72.6428 10.8214V3.60714C72.6428 2.78307 72.9701 1.99276 73.5528 1.41006C74.1355 0.827358 74.9258 0.5 75.7499 0.5C76.574 0.5 77.3643 0.827358 77.947 1.41006C78.5297 1.99276 78.857 2.78307 78.857 3.60714V10.8214C78.857 11.6455 78.5297 12.4358 77.947 13.0185C77.3643 13.6012 76.574 13.9286 75.7499 13.9286Z" fill="#FFC106" stroke="white"/>
<path d="M55.3445 22.3805L55.3439 22.3805C54.9362 22.3812 54.5323 22.3011 54.1557 22.1449C53.779 21.9887 53.437 21.7595 53.1494 21.4705L53.1484 21.4696L48.0467 16.37C47.4639 15.7873 47.1365 14.9969 47.1365 14.1727C47.1365 13.3485 47.4639 12.5581 48.0467 11.9753C48.6294 11.3925 49.4199 11.0651 50.244 11.0651C51.0682 11.0651 51.8585 11.3925 52.4413 11.9752C52.4413 11.9753 52.4414 11.9753 52.4414 11.9753L57.5409 17.077C57.5409 17.0771 57.5409 17.0771 57.5409 17.0771C57.9751 17.5116 58.2708 18.0651 58.3906 18.6676C58.5104 19.2702 58.4488 19.8947 58.2138 20.4623C57.9787 21.0298 57.5807 21.515 57.07 21.8564C56.5593 22.1979 55.9588 22.3803 55.3445 22.3805ZM53.9641 22.6068C53.5265 22.4253 53.1291 22.159 52.7949 21.8232L55.3447 22.8805C54.871 22.8813 54.4018 22.7883 53.9641 22.6068Z" fill="#FFC106" stroke="white"/>
<path d="M93.6052 16.7236L93.9589 17.0771C93.9589 17.0771 93.9589 17.0771 93.9589 17.077L93.6052 16.7236ZM99.0584 11.9753C99.0584 11.9753 99.0584 11.9753 99.0585 11.9752L98.7048 11.6218L99.0584 11.9753ZM103.453 16.37C103.453 16.37 103.453 16.37 103.453 16.37L103.807 16.7236L103.453 16.37Z" fill="#FFC106" stroke="white"/>
</svg>
