<svg width="10" height="10" viewBox="0 0 10 10" fill="none" xmlns="http://www.w3.org/2000/svg">
<path d="M3.895 5.395L1 8.295V7.5C1 7.36739 0.947322 7.24021 0.853553 7.14645C0.759785 7.05268 0.632608 7 0.5 7C0.367392 7 0.240215 7.05268 0.146447 7.14645C0.0526784 7.24021 0 7.36739 0 7.5V9.5C0.000789994 9.56534 0.0143795 9.62989 0.04 9.69C0.0907374 9.81217 0.187825 9.90926 0.31 9.96C0.370111 9.98562 0.434661 9.99921 0.5 10H2.5C2.63261 10 2.75979 9.94732 2.85355 9.85355C2.94732 9.75979 3 9.63261 3 9.5C3 9.36739 2.94732 9.24021 2.85355 9.14645C2.75979 9.05268 2.63261 9 2.5 9H1.705L4.605 6.105C4.69915 6.01085 4.75205 5.88315 4.75205 5.75C4.75205 5.61685 4.69915 5.48915 4.605 5.395C4.51085 5.30085 4.38315 5.24795 4.25 5.24795C4.11685 5.24795 3.98915 5.30085 3.895 5.395ZM9.96 0.31C9.90926 0.187825 9.81217 0.0907374 9.69 0.04C9.62989 0.0143795 9.56534 0.000789994 9.5 0H7.5C7.36739 0 7.24021 0.0526784 7.14645 0.146447C7.05268 0.240215 7 0.367392 7 0.5C7 0.632608 7.05268 0.759785 7.14645 0.853553C7.24021 0.947322 7.36739 1 7.5 1H8.295L5.395 3.895C5.34814 3.94148 5.31094 3.99678 5.28555 4.05771C5.26017 4.11864 5.2471 4.18399 5.2471 4.25C5.2471 4.31601 5.26017 4.38136 5.28555 4.44229C5.31094 4.50322 5.34814 4.55852 5.395 4.605C5.44148 4.65186 5.49678 4.68906 5.55771 4.71445C5.61864 4.73983 5.68399 4.7529 5.75 4.7529C5.81601 4.7529 5.88136 4.73983 5.94229 4.71445C6.00322 4.68906 6.05852 4.65186 6.105 4.605L9 1.705V2.5C9 2.63261 9.05268 2.75979 9.14645 2.85355C9.24021 2.94732 9.36739 3 9.5 3C9.63261 3 9.75979 2.94732 9.85355 2.85355C9.94732 2.75979 10 2.63261 10 2.5V0.5C9.99921 0.434661 9.98562 0.370111 9.96 0.31Z" fill="black"/>
</svg>
