<svg width="22" height="21" viewBox="0 0 22 21" fill="none" xmlns="http://www.w3.org/2000/svg">
<path d="M0 10.1588V10.1291C0.276151 6.68366 1.56485 4.09959 3.80474 2.46598C6.01395 0.802672 8.40725 0.00071872 11.0153 0.00071872C13.7462 -0.0289832 16.2929 0.862076 18.5635 2.64419C20.8647 4.39661 22 7.01038 22 10.3964V10.6043C22 14.02 20.8647 16.5744 18.5635 18.3268C16.2622 20.1089 13.7155 21 10.9847 21H10.8619C8.19247 20.9703 5.7378 20.0792 3.46722 18.2971C1.19665 16.5447 0.0306834 13.8418 0 10.1588ZM10.3403 5.49558V0.802672H9.60391C9.45049 0.980883 9.32775 1.1888 9.20502 1.36701C9.08229 1.54522 8.95955 1.72343 8.83682 1.93135C8.71409 2.10956 8.56067 2.34717 8.46862 2.52539C8.34589 2.7036 8.25384 2.88181 8.16179 3.08972C7.97768 3.38674 7.82427 3.68376 7.70153 3.95108C7.54812 4.2184 7.42538 4.48571 7.33333 4.72333C7.51743 4.84214 7.73222 4.99065 7.97768 5.07975C8.25384 5.16886 8.52999 5.25796 8.80614 5.31737C9.11297 5.37677 9.38912 5.40647 9.63459 5.43618C9.91074 5.46588 10.1562 5.49558 10.3403 5.49558ZM11.629 0.802672V5.46588C11.7824 5.46588 11.9665 5.49558 12.1506 5.46588C12.3347 5.46588 12.5495 5.43618 12.7336 5.40647C13.0711 5.34707 13.47 5.25796 13.7768 5.16886C14.1144 5.05005 14.4212 4.90154 14.636 4.72333C14.2678 3.86197 13.8689 3.17883 13.47 2.52539C13.0711 1.87194 12.6109 1.3076 12.1199 0.832374V0.802672H11.629ZM8.3152 1.06999V1.04029C8.10042 1.12939 7.88563 1.2779 7.64017 1.36701C7.42538 1.45611 7.14923 1.57492 6.93445 1.69373C6.50488 1.90164 6.07531 2.13926 5.64575 2.40658C5.24686 2.67389 4.84798 2.97091 4.51046 3.26793C4.63319 3.38674 4.78661 3.50555 4.90934 3.59466C5.03208 3.68376 5.1855 3.80257 5.33891 3.92138C5.46165 3.98078 5.61506 4.06989 5.76848 4.18869C5.9219 4.2778 6.106 4.39661 6.2901 4.51542C6.53557 3.98078 6.78103 3.41644 7.08787 2.91151C7.3947 2.37688 7.73222 1.87194 8.06974 1.42641C8.10042 1.36701 8.1311 1.3076 8.19247 1.2482C8.22315 1.2185 8.25384 1.12939 8.3152 1.06999ZM17.7043 3.26793V3.23823C16.9372 2.67389 16.2622 2.19866 15.5872 1.90164C14.9121 1.60462 14.2371 1.3076 13.6234 1.06999C14.1144 1.54522 14.5439 2.13926 14.8201 2.7036C15.1269 3.29764 15.4338 3.92138 15.6792 4.51542C15.802 4.45601 15.9554 4.39661 16.1395 4.2778C16.2929 4.18869 16.5077 4.09959 16.6918 4.01048C16.8759 3.89167 17.0293 3.77287 17.2134 3.65406C17.3975 3.50555 17.5816 3.38674 17.7043 3.26793ZM17.1827 9.89147H20.7113C20.7113 8.7925 20.4658 7.75293 20.0056 6.68366C19.576 5.64409 18.9623 4.78273 18.1953 4.04018V4.01048C18.0418 4.2481 17.8271 4.45601 17.6123 4.60452C17.3668 4.75303 17.152 4.87184 16.9066 4.99065C16.7531 5.07975 16.5997 5.19856 16.4463 5.25796C16.2929 5.34707 16.0781 5.40647 15.9247 5.49558C16.0474 5.7332 16.1702 6.00051 16.2929 6.23813C16.3849 6.50545 16.5384 6.80247 16.5997 7.06978C16.7838 7.54502 16.9066 8.04995 17.0293 8.55488C17.1213 9.00041 17.1827 9.47564 17.1827 9.89147ZM6.07531 5.49558V5.46588C5.82985 5.34707 5.5537 5.25796 5.33891 5.13916C5.12413 4.99065 4.90934 4.84214 4.72524 4.72333C4.54114 4.63422 4.35704 4.51542 4.20363 4.39661C4.05021 4.2778 3.92748 4.15899 3.80474 4.04018C3.00697 4.78273 2.42399 5.61439 2.05579 6.59455C1.6569 7.57472 1.38075 8.67369 1.25802 9.86177H5.03208C5.03208 9.03011 5.15481 8.22816 5.3696 7.42621C5.5537 6.59455 5.82985 5.97081 6.07531 5.49558ZM10.3403 9.86177V6.44604C10.0948 6.47575 9.78801 6.47575 9.51186 6.44604C9.20502 6.41634 8.89819 6.32724 8.62204 6.23813C8.37657 6.17873 8.06974 6.11932 7.82427 6.03022C7.54812 5.97081 7.27197 5.852 7.05718 5.7332C6.87308 6.03022 6.71967 6.38664 6.59693 6.77276C6.44351 7.12919 6.35146 7.51531 6.25941 7.87174C6.19805 8.22816 6.16736 8.61429 6.13668 8.94101C6.106 9.26773 6.07531 9.59445 6.07531 9.86177H10.3403ZM11.629 6.50545V9.86177H16.1702C16.1702 9.68356 16.1702 9.47564 16.1395 9.23803C16.0781 9.03011 16.0474 8.7628 16.0167 8.52518C15.9247 8.16876 15.8326 7.78263 15.7099 7.42621C15.5872 7.09949 15.4644 6.77276 15.311 6.50545C15.2497 6.35694 15.1883 6.17873 15.1269 6.05992C15.0349 5.91141 14.9428 5.8223 14.8815 5.7332C14.5439 5.97081 14.0837 6.11932 13.5314 6.23813C13.0098 6.35694 12.3961 6.47575 11.8438 6.50545H11.629ZM5.03208 10.8419H1.25802C1.25802 11.3469 1.35007 11.9112 1.50349 12.5943C1.6569 13.3072 1.96374 13.9606 2.30126 14.6735C2.45467 15.0299 2.63877 15.3863 2.82287 15.7428C3.03766 16.0695 3.28312 16.4259 3.52859 16.7526C3.71269 16.6338 3.89679 16.5447 4.05021 16.4556C4.23431 16.3665 4.44909 16.2477 4.63319 16.1586C4.84798 16.0695 5.06276 15.9804 5.30823 15.8616C5.52301 15.7725 5.79916 15.6536 6.07531 15.5348C5.82985 14.7923 5.5537 14.0794 5.3696 13.2775C5.15481 12.5052 5.03208 11.733 5.03208 10.8716V10.8419ZM10.3403 14.3171V10.8419H6.07531C6.07531 11.0795 6.106 11.436 6.16736 11.7924C6.19805 12.1488 6.2901 12.5349 6.35146 12.9211C6.4742 13.3369 6.56625 13.7527 6.68898 14.1091C6.81172 14.4656 6.93445 14.7626 7.05718 15.0299C7.60948 14.822 8.16179 14.6735 8.52999 14.5844C8.92887 14.4656 9.29707 14.3765 9.66527 14.3468H10.0028C10.1255 14.3171 10.2483 14.3171 10.3403 14.3171ZM11.629 10.8419V14.2874C11.8438 14.3171 12.0893 14.3468 12.3347 14.3765C12.6109 14.4062 12.9484 14.4656 13.2245 14.525L13.6848 14.6141C13.8382 14.6735 14.0223 14.7032 14.1757 14.7329C14.3598 14.7923 14.5439 14.822 14.728 14.8814C14.8815 14.9408 15.0349 14.9705 15.1576 15.0299C15.5565 14.0497 15.802 13.2478 15.9554 12.5646C16.1088 11.9112 16.1702 11.3469 16.1702 10.8716V10.8419H11.629ZM20.7113 10.8716V10.8419H17.1827V11.0201C17.152 11.5845 17.06 12.2379 16.9372 12.9211C16.8145 13.5745 16.5384 14.3468 16.1702 15.2972C16.6611 15.5348 17.1213 15.7725 17.4895 16.0101C17.8577 16.2477 18.1953 16.515 18.4407 16.7526C18.9623 16.2477 19.4226 15.5645 19.8215 14.6735C20.2204 13.8121 20.4965 12.9211 20.6499 11.9706C20.6806 11.7924 20.6806 11.6142 20.7113 11.436V10.8716ZM10.3403 19.901V15.2675C9.57322 15.3863 8.92887 15.5348 8.43794 15.6536C7.947 15.7725 7.5788 15.8913 7.33333 16.0101C7.51743 16.4556 7.70153 16.8417 7.88563 17.1982C8.06974 17.5249 8.28452 17.8813 8.46862 18.1783C8.52999 18.2971 8.65272 18.4159 8.74477 18.5644C8.83682 18.6832 8.89819 18.8318 8.99024 18.9506C9.08229 19.0991 9.17434 19.2773 9.26639 19.4555C9.38912 19.604 9.48117 19.7822 9.60391 19.901H10.3403ZM11.629 19.901H12.3347C12.6109 19.6931 12.887 19.3961 13.1018 19.0694C13.3473 18.7427 13.6234 18.3565 13.8075 18.0298C14.0223 17.6437 14.2371 17.2873 14.4212 16.9308C14.6053 16.5744 14.7587 16.2477 14.8815 16.0101C14.5439 15.8913 14.0837 15.7725 13.6234 15.6536C13.1632 15.5348 12.5188 15.416 11.629 15.2972V19.901ZM17.7043 17.4655V17.4358C17.643 17.3467 17.5202 17.2279 17.4282 17.1387C17.3361 17.0496 17.1827 16.9308 17.0293 16.8417C16.9066 16.7526 16.7531 16.6635 16.569 16.5744C16.3849 16.4853 16.1395 16.3665 15.9247 16.2477C15.802 16.4853 15.5872 16.9011 15.2803 17.4655C15.0042 18.0298 14.5133 18.7129 13.8996 19.4555C14.6667 19.3367 15.3417 19.0694 15.9554 18.7129C16.6304 18.3862 17.2134 17.9407 17.7043 17.4655ZM6.2901 16.515V16.4853C6.07531 16.6041 5.7378 16.7526 5.40028 16.9011C5.03208 17.0496 4.63319 17.2279 4.26499 17.4655C4.47978 17.6437 4.69456 17.8219 4.87866 17.9407C5.06276 18.0892 5.27755 18.208 5.46165 18.3268C5.79916 18.5347 6.19805 18.7427 6.59693 18.9209C6.99582 19.0991 7.48675 19.2773 8.10042 19.4555C7.88563 19.2179 7.73222 18.9209 7.5788 18.6832C7.42538 18.4456 7.24128 18.208 7.08787 17.9704C6.93445 17.7328 6.81172 17.4655 6.68898 17.2279C6.53557 16.9902 6.41283 16.7526 6.2901 16.515Z" fill="white"/>
</svg>
