<svg width="72" height="130" viewBox="0 0 72 130" fill="none" xmlns="http://www.w3.org/2000/svg">
<path d="M26.9542 22.1371C5.18911 19.9244 7.94931 6.45364 11.1356 0C14.5403 6.22605 32.0569 9.68497 42.2891 11.7603C79.7897 19.3664 53.7834 39.4133 54.5188 38.7218C62.6071 23.5097 26.9542 22.8285 26.9542 22.1371Z" fill="white"/>
<path d="M37.0471 47.8412C5.7801 44.8215 7.48375 30.981 12.2439 24.4383C14.6491 32.8935 32.788 36.0139 41.5568 36.5172C69.8173 38.3291 67.0885 56.6189 62.6186 62.5788C53.9447 74.144 27.0883 70.5538 26.7132 70.4892C5.66809 66.8655 7.98483 56.3971 10.7407 50.106C28.7794 65.2047 59.6386 62.5788 61.1886 61.0957C70.3287 52.3503 37.7987 47.8412 37.0471 47.8412Z" fill="white"/>
<path d="M8.76312 99.7597C8.76312 100.335 8.61935 100.851 8.33182 101.308C8.04429 101.753 7.58686 102.106 6.95952 102.367C7.71755 102.615 8.27954 102.994 8.64549 103.504C9.02451 104.014 9.21401 104.608 9.21401 105.288C9.21401 106.517 8.76965 107.425 7.88092 108.013C7.00527 108.588 5.74406 108.876 4.0973 108.876C3.58758 108.876 3.0452 108.85 2.47014 108.797C1.90815 108.745 1.38537 108.647 0.901797 108.503C0.300599 108.333 0 107.987 0 107.464V97.662C0 97.4398 0.0588129 97.2699 0.176439 97.1523C0.307134 97.0216 0.483572 96.9236 0.705754 96.8582C1.15012 96.7145 1.64023 96.6164 2.17608 96.5642C2.725 96.5119 3.31312 96.4857 3.94046 96.4857C5.4696 96.4857 6.65239 96.7537 7.48884 97.2895C8.33836 97.8254 8.76312 98.6488 8.76312 99.7597ZM7.07715 105.229C7.07715 104.628 6.85497 104.158 6.4106 103.818C5.96624 103.465 5.32583 103.288 4.48938 103.288H2.05845V107.013C2.33291 107.079 2.65965 107.131 3.03866 107.17C3.41768 107.196 3.7967 107.209 4.17571 107.209C5.10365 107.209 5.81594 107.052 6.31258 106.739C6.82229 106.412 7.07715 105.909 7.07715 105.229ZM2.05845 101.7H4.39136C5.13632 101.7 5.69831 101.537 6.07733 101.21C6.45635 100.884 6.64585 100.439 6.64585 99.8773C6.64585 98.7272 5.74406 98.1521 3.94046 98.1521C3.56145 98.1521 3.2151 98.1652 2.90143 98.1913C2.58777 98.2175 2.30677 98.2501 2.05845 98.2893V101.7Z" fill="white"/>
<path d="M18.4773 105.661H13.6939L12.7333 108.66C12.6157 108.712 12.4915 108.751 12.3608 108.778C12.2301 108.804 12.0733 108.817 11.8903 108.817C11.5636 108.817 11.2956 108.745 11.0865 108.601C10.8774 108.457 10.7729 108.242 10.7729 107.954C10.7729 107.81 10.7925 107.673 10.8317 107.543C10.8709 107.399 10.9232 107.242 10.9885 107.072C11.1584 106.523 11.3937 105.817 11.6943 104.955C12.0079 104.079 12.3347 103.158 12.6745 102.191C13.0274 101.223 13.3802 100.276 13.7331 99.348C14.086 98.407 14.3931 97.6032 14.6545 96.9366C14.7852 96.8582 14.9878 96.7863 15.2622 96.721C15.5367 96.6426 15.8177 96.6034 16.1052 96.6034C16.4842 96.6034 16.8241 96.6557 17.1247 96.7602C17.4253 96.8648 17.6278 97.0477 17.7324 97.3091C18.0199 98.0541 18.3336 98.9036 18.6734 99.8577C19.0132 100.799 19.353 101.772 19.6928 102.779C20.0326 103.785 20.3594 104.772 20.673 105.739C20.9867 106.706 21.2677 107.582 21.516 108.366C21.3984 108.497 21.2416 108.601 21.0455 108.68C20.8625 108.771 20.6404 108.817 20.379 108.817C20.0261 108.817 19.7712 108.751 19.6144 108.621C19.4576 108.477 19.3269 108.242 19.2223 107.915L18.4773 105.661ZM16.0856 98.4266C15.9549 98.7794 15.8112 99.1781 15.6543 99.6224C15.4975 100.067 15.3341 100.537 15.1642 101.034C14.9943 101.518 14.8244 102.014 14.6545 102.524C14.4846 103.021 14.3212 103.504 14.1644 103.975H18.0264C17.8565 103.452 17.6801 102.929 17.4971 102.406C17.3272 101.87 17.1573 101.361 16.9874 100.877C16.8306 100.394 16.6803 99.9426 16.5365 99.5244C16.3928 99.0931 16.2751 98.7272 16.1836 98.4266H16.0856Z" fill="white"/>
<path d="M25.742 108.601C25.6374 108.64 25.5002 108.673 25.3303 108.699C25.1604 108.738 24.9709 108.758 24.7617 108.758C24.3566 108.758 24.0625 108.686 23.8796 108.542C23.7096 108.386 23.6247 108.131 23.6247 107.778V97.662C23.6247 97.4398 23.6835 97.2699 23.8011 97.1523C23.9318 97.0216 24.1083 96.9236 24.3305 96.8582C24.7356 96.7145 25.2192 96.6164 25.7812 96.5642C26.3432 96.5119 26.9051 96.4857 27.4671 96.4857C29.1662 96.4857 30.4274 96.8321 31.2508 97.5248C32.0872 98.2044 32.5054 99.165 32.5054 100.407C32.5054 101.269 32.2767 102.008 31.8193 102.622C31.3749 103.223 30.7345 103.674 29.8981 103.975C30.2117 104.367 30.5189 104.759 30.8195 105.151C31.1201 105.53 31.4011 105.896 31.6625 106.249C31.9369 106.588 32.1787 106.902 32.3878 107.19C32.61 107.464 32.7864 107.693 32.9171 107.876C32.8518 108.176 32.708 108.405 32.4858 108.562C32.2637 108.719 32.0219 108.797 31.7605 108.797C31.4468 108.797 31.1985 108.725 31.0155 108.582C30.8325 108.425 30.6496 108.216 30.4666 107.954L27.9376 104.308H25.742V108.601ZM27.624 102.622C28.4735 102.622 29.1466 102.439 29.6432 102.073C30.1399 101.707 30.3882 101.152 30.3882 100.407C30.3882 99.6747 30.1333 99.1258 29.6236 98.7598C29.127 98.3939 28.3885 98.2109 27.4083 98.2109C27.1077 98.2109 26.8071 98.224 26.5065 98.2501C26.219 98.2763 25.9576 98.3089 25.7224 98.3482V102.622H27.624Z" fill="white"/>
<path d="M39.6042 98.4658V108.601C39.5127 108.64 39.3755 108.673 39.1925 108.699C39.0226 108.738 38.8396 108.758 38.6436 108.758C38.2384 108.758 37.9509 108.686 37.781 108.542C37.6111 108.386 37.5261 108.131 37.5261 107.778V98.4658H34.0562C33.9908 98.3743 33.932 98.2567 33.8797 98.1129C33.8405 97.9691 33.8209 97.8058 33.8209 97.6228C33.8209 97.3353 33.8863 97.1196 34.017 96.9759C34.1607 96.819 34.3502 96.7406 34.5855 96.7406H43.1133C43.1656 96.819 43.2114 96.9301 43.2506 97.0739C43.3029 97.2176 43.329 97.3745 43.329 97.5444C43.329 98.1586 43.0741 98.4658 42.5644 98.4658H39.6042Z" fill="white"/>
<path d="M55.0176 104.465C55.0176 105.131 54.9065 105.739 54.6843 106.288C54.4752 106.837 54.1615 107.307 53.7433 107.699C53.3382 108.091 52.835 108.392 52.2338 108.601C51.6457 108.81 50.966 108.915 50.1949 108.915C49.4369 108.915 48.7573 108.81 48.1561 108.601C47.568 108.392 47.0648 108.091 46.6466 107.699C46.2414 107.307 45.9277 106.837 45.7056 106.288C45.4964 105.739 45.3919 105.131 45.3919 104.465V96.7406C45.4834 96.7145 45.6206 96.6883 45.8036 96.6622C45.9865 96.623 46.1761 96.6034 46.3721 96.6034C46.7511 96.6034 47.0321 96.6753 47.2151 96.819C47.3981 96.9628 47.4895 97.2176 47.4895 97.5836V104.347C47.4895 105.275 47.7444 105.981 48.2541 106.464C48.7769 106.948 49.4238 107.19 50.1949 107.19C50.587 107.19 50.9464 107.131 51.2732 107.013C51.5999 106.883 51.8874 106.7 52.1358 106.464C52.3841 106.229 52.5736 105.935 52.7043 105.582C52.8481 105.229 52.9199 104.818 52.9199 104.347V96.7406C53.0114 96.7145 53.1486 96.6883 53.3316 96.6622C53.5146 96.623 53.7041 96.6034 53.9001 96.6034C54.2792 96.6034 54.5602 96.6753 54.7431 96.819C54.9261 96.9628 55.0176 97.2176 55.0176 97.5836V104.465Z" fill="white"/>
<path d="M65.3945 105.582C65.29 105.674 65.1462 105.752 64.9632 105.817C64.7803 105.883 64.5712 105.915 64.3359 105.915C64.0614 105.915 63.8197 105.876 63.6105 105.798C63.4145 105.706 63.2773 105.569 63.1989 105.386C62.5977 104.001 62.0749 102.772 61.6305 101.7C61.1992 100.629 60.8529 99.7335 60.5915 99.0147H60.4935C60.4543 99.9426 60.415 100.799 60.3758 101.583C60.3497 102.354 60.317 103.112 60.2778 103.857C60.2386 104.602 60.1929 105.36 60.1406 106.131C60.1014 106.902 60.0556 107.732 60.0034 108.621C59.8988 108.66 59.7616 108.693 59.5917 108.719C59.4348 108.758 59.2649 108.778 59.082 108.778C58.3762 108.778 58.0233 108.49 58.0233 107.915C58.0233 107.745 58.0299 107.445 58.0429 107.013C58.0691 106.582 58.0952 106.072 58.1213 105.484C58.1606 104.883 58.1998 104.223 58.239 103.504C58.2913 102.785 58.3435 102.06 58.3958 101.328C58.4481 100.583 58.5004 99.8577 58.5526 99.1519C58.6049 98.4331 58.6572 97.7731 58.7095 97.1719C58.814 97.0673 58.9839 96.9563 59.2192 96.8386C59.4675 96.721 59.7681 96.6622 60.121 96.6622C60.5392 96.6622 60.8725 96.7406 61.1208 96.8974C61.3691 97.0412 61.5652 97.2634 61.7089 97.564C61.918 98.0214 62.1337 98.5181 62.3559 99.0539C62.5781 99.5767 62.8002 100.113 63.0224 100.661C63.2446 101.197 63.4602 101.733 63.6694 102.269C63.8785 102.805 64.081 103.308 64.2771 103.779H64.3751C64.6234 103.125 64.8718 102.478 65.1201 101.838C65.3815 101.197 65.6298 100.583 65.865 99.9949C66.1134 99.4068 66.3421 98.8513 66.5512 98.3286C66.7734 97.8058 66.9759 97.3353 67.1589 96.917C67.3027 96.8517 67.4791 96.7929 67.6882 96.7406C67.8974 96.6883 68.113 96.6622 68.3352 96.6622C68.7665 96.6622 69.0867 96.7275 69.2958 96.8582C69.518 96.9889 69.6617 97.1784 69.7271 97.4268C69.7794 97.662 69.8382 98.0541 69.9035 98.603C69.9689 99.1389 70.0342 99.7597 70.0996 100.465C70.1649 101.171 70.2303 101.923 70.2956 102.72C70.361 103.504 70.4198 104.269 70.472 105.014C70.5243 105.746 70.5701 106.425 70.6093 107.052C70.6485 107.667 70.6746 108.15 70.6877 108.503C70.5439 108.595 70.3871 108.66 70.2172 108.699C70.0604 108.751 69.8708 108.778 69.6487 108.778C69.3742 108.778 69.1324 108.719 68.9233 108.601C68.7273 108.484 68.6162 108.261 68.59 107.935C68.5378 107.046 68.4855 106.17 68.4332 105.308C68.394 104.445 68.3548 103.628 68.3156 102.857C68.2764 102.086 68.2372 101.374 68.198 100.72C68.1718 100.067 68.1457 99.5113 68.1195 99.0539H68.0411C67.7928 99.7205 67.453 100.57 67.0217 101.602C66.6035 102.635 66.0611 103.962 65.3945 105.582Z" fill="white"/>
<path d="M5.52121 129.081C5.1814 129.081 4.90694 128.977 4.69783 128.767C4.48872 128.558 4.38416 128.284 4.38416 127.944V118.279C4.38416 117.939 4.48872 117.671 4.69783 117.475C4.90694 117.266 5.1814 117.162 5.52121 117.162H12.0102C12.0756 117.24 12.1279 117.351 12.1671 117.495C12.2193 117.639 12.2455 117.796 12.2455 117.966C12.2455 118.253 12.1736 118.475 12.0298 118.632C11.8991 118.789 11.7162 118.867 11.4809 118.867H6.46222V122.122H11.4221C11.4874 122.2 11.5397 122.311 11.5789 122.455C11.6312 122.599 11.6574 122.755 11.6574 122.925C11.6574 123.226 11.5855 123.448 11.4417 123.592C11.311 123.736 11.128 123.808 10.8928 123.808H6.46222V127.376H12.1083C12.1605 127.454 12.2128 127.565 12.2651 127.709C12.3174 127.853 12.3435 128.009 12.3435 128.179C12.3435 128.48 12.2716 128.709 12.1279 128.865C11.9972 129.009 11.8142 129.081 11.5789 129.081H5.52121Z" fill="white"/>
<path d="M24.7164 128.787C24.5726 128.905 24.3897 129.003 24.1675 129.081C23.9453 129.16 23.6839 129.199 23.3833 129.199C23.0174 129.199 22.6972 129.133 22.4227 129.003C22.1613 128.859 21.9195 128.598 21.6974 128.219L18.4626 122.592C18.3189 122.344 18.1686 122.082 18.0117 121.808C17.868 121.533 17.7242 121.259 17.5804 120.985C17.4498 120.71 17.3191 120.449 17.1884 120.2C17.0707 119.939 16.9662 119.71 16.8747 119.514L16.7767 119.534C16.842 120.213 16.8878 120.945 16.9139 121.73C16.94 122.501 16.9531 123.233 16.9531 123.925V129.042C16.8616 129.068 16.7244 129.094 16.5414 129.12C16.3715 129.16 16.1951 129.179 16.0121 129.179C15.62 129.179 15.3325 129.107 15.1495 128.964C14.9796 128.82 14.8947 128.578 14.8947 128.238V117.495C15.0254 117.351 15.2083 117.24 15.4436 117.162C15.6919 117.07 15.9533 117.025 16.2278 117.025C16.5937 117.025 16.9139 117.09 17.1884 117.221C17.4628 117.351 17.7111 117.606 17.9333 117.985L21.1876 123.631C21.3314 123.879 21.4752 124.141 21.6189 124.415C21.7627 124.69 21.8999 124.964 22.0306 125.239C22.1744 125.513 22.3051 125.781 22.4227 126.042C22.5534 126.291 22.6645 126.513 22.756 126.709L22.8344 126.689C22.7298 125.696 22.671 124.716 22.658 123.749C22.6449 122.769 22.6384 121.814 22.6384 120.887V117.162C22.7429 117.136 22.8801 117.109 23.05 117.083C23.22 117.044 23.4029 117.025 23.599 117.025C23.9911 117.025 24.272 117.096 24.4419 117.24C24.6249 117.384 24.7164 117.626 24.7164 117.966V128.787Z" fill="white"/>
<path d="M29.0693 129.081C28.7295 129.081 28.4551 128.977 28.2459 128.767C28.0368 128.558 27.9323 128.284 27.9323 127.944V118.279C27.9323 117.939 28.0368 117.671 28.2459 117.475C28.4551 117.266 28.7295 117.162 29.0693 117.162H35.5583C35.6237 117.24 35.676 117.351 35.7152 117.495C35.7675 117.639 35.7936 117.796 35.7936 117.966C35.7936 118.253 35.7217 118.475 35.578 118.632C35.4473 118.789 35.2643 118.867 35.029 118.867H30.0103V122.122H34.9702C35.0356 122.2 35.0878 122.311 35.1271 122.455C35.1793 122.599 35.2055 122.755 35.2055 122.925C35.2055 123.226 35.1336 123.448 34.9898 123.592C34.8591 123.736 34.6762 123.808 34.4409 123.808H30.0103V127.376H35.6564C35.7086 127.454 35.7609 127.565 35.8132 127.709C35.8655 127.853 35.8916 128.009 35.8916 128.179C35.8916 128.48 35.8197 128.709 35.676 128.865C35.5453 129.009 35.3623 129.081 35.1271 129.081H29.0693Z" fill="white"/>
<path d="M40.56 129.022C40.4555 129.062 40.3183 129.094 40.1484 129.12C39.9784 129.16 39.7889 129.179 39.5798 129.179C39.1747 129.179 38.8806 129.107 38.6976 128.964C38.5277 128.807 38.4428 128.552 38.4428 128.199V118.083C38.4428 117.861 38.5016 117.691 38.6192 117.573C38.7499 117.443 38.9264 117.345 39.1485 117.279C39.5537 117.136 40.0373 117.038 40.5992 116.985C41.1612 116.933 41.7232 116.907 42.2852 116.907C43.9843 116.907 45.2455 117.253 46.0688 117.946C46.9053 118.626 47.3235 119.586 47.3235 120.828C47.3235 121.69 47.0948 122.429 46.6374 123.043C46.193 123.644 45.5526 124.095 44.7162 124.396C45.0298 124.788 45.337 125.18 45.6376 125.572C45.9382 125.951 46.2191 126.317 46.4805 126.67C46.755 127.01 46.9968 127.323 47.2059 127.611C47.4281 127.885 47.6045 128.114 47.7352 128.297C47.6699 128.598 47.5261 128.826 47.3039 128.983C47.0817 129.14 46.8399 129.218 46.5786 129.218C46.2649 129.218 46.0166 129.146 45.8336 129.003C45.6506 128.846 45.4676 128.637 45.2847 128.375L42.7557 124.729H40.56V129.022ZM42.4421 123.043C43.2916 123.043 43.9647 122.86 44.4613 122.494C44.9579 122.128 45.2063 121.573 45.2063 120.828C45.2063 120.096 44.9514 119.547 44.4417 119.181C43.9451 118.815 43.2066 118.632 42.2264 118.632C41.9258 118.632 41.6252 118.645 41.3246 118.671C41.0371 118.697 40.7757 118.73 40.5404 118.769V123.043H42.4421Z" fill="white"/>
<path d="M59.751 127.552C59.751 127.826 59.6791 128.055 59.5353 128.238C59.4046 128.408 59.1955 128.565 58.908 128.709C58.5682 128.892 58.0977 129.042 57.4965 129.16C56.8953 129.277 56.281 129.336 55.6537 129.336C54.7257 129.336 53.8697 129.218 53.0855 128.983C52.3144 128.735 51.6478 128.356 51.0859 127.846C50.5239 127.336 50.086 126.689 49.7724 125.905C49.4587 125.121 49.3019 124.193 49.3019 123.121C49.3019 122.076 49.4652 121.161 49.792 120.377C50.1187 119.593 50.5565 118.946 51.1055 118.436C51.6675 117.913 52.3209 117.521 53.0659 117.26C53.8239 116.998 54.6277 116.868 55.4772 116.868C56.0392 116.868 56.5555 116.92 57.026 117.025C57.4965 117.116 57.9016 117.24 58.2414 117.397C58.5812 117.554 58.8426 117.737 59.0256 117.946C59.2086 118.142 59.3001 118.351 59.3001 118.573C59.3001 118.795 59.2412 118.991 59.1236 119.161C59.006 119.318 58.8622 119.442 58.6923 119.534C58.3394 119.312 57.9212 119.103 57.4376 118.907C56.9541 118.71 56.3463 118.612 55.6144 118.612C55.0263 118.612 54.4774 118.71 53.9677 118.907C53.458 119.103 53.0136 119.39 52.6346 119.769C52.2687 120.148 51.9811 120.619 51.772 121.181C51.5629 121.743 51.4583 122.39 51.4583 123.121C51.4583 123.893 51.5629 124.566 51.772 125.141C51.9942 125.703 52.2883 126.167 52.6542 126.533C53.0332 126.899 53.4776 127.173 53.9873 127.356C54.5101 127.526 55.0721 127.611 55.6733 127.611C56.0915 127.611 56.4836 127.578 56.8495 127.513C57.2155 127.434 57.4965 127.343 57.6925 127.238V124.102H54.9871C54.9218 124.023 54.863 123.912 54.8107 123.768C54.7715 123.612 54.7519 123.455 54.7519 123.298C54.7519 122.997 54.8172 122.775 54.9479 122.631C55.0917 122.488 55.2812 122.416 55.5164 122.416H58.8099C59.0844 122.416 59.3066 122.501 59.4765 122.671C59.6595 122.827 59.751 123.056 59.751 123.357V127.552Z" fill="white"/>
<path d="M71.1009 117.926C71.1009 118.214 70.7742 118.946 70.1207 120.122C69.4672 121.285 68.5066 122.834 67.2389 124.768V129.022C67.1343 129.062 66.9906 129.094 66.8076 129.12C66.6377 129.16 66.4612 129.179 66.2783 129.179C65.8731 129.179 65.5856 129.107 65.4157 128.964C65.2458 128.807 65.1608 128.558 65.1608 128.219V124.788C64.8079 124.265 64.4355 123.703 64.0434 123.102C63.6513 122.488 63.2657 121.873 62.8867 121.259C62.5077 120.632 62.1483 120.024 61.8085 119.436C61.4817 118.835 61.2008 118.279 60.9655 117.769C61.0439 117.586 61.1746 117.423 61.3576 117.279C61.5406 117.123 61.7823 117.044 62.0829 117.044C62.3966 117.044 62.6449 117.123 62.8279 117.279C63.0109 117.423 63.2004 117.671 63.3964 118.024C63.5533 118.299 63.7558 118.665 64.0042 119.122C64.2525 119.58 64.5139 120.057 64.7883 120.553C65.0628 121.037 65.3242 121.501 65.5725 121.945C65.8208 122.376 66.0169 122.71 66.1606 122.945H66.2391C66.5266 122.422 66.801 121.926 67.0624 121.455C67.3238 120.972 67.5721 120.501 67.8074 120.044C68.0426 119.586 68.2779 119.129 68.5131 118.671C68.7484 118.214 68.9837 117.743 69.2189 117.26C69.3365 117.194 69.4738 117.142 69.6306 117.103C69.8005 117.064 69.9573 117.044 70.1011 117.044C70.4017 117.044 70.6435 117.123 70.8265 117.279C71.0094 117.436 71.1009 117.652 71.1009 117.926Z" fill="white"/>
</svg>
