<svg width="44" height="44" viewBox="0 0 44 44" fill="none" xmlns="http://www.w3.org/2000/svg">
<path d="M8 28H14C15.5913 28 17.1174 28.6321 18.2426 29.7574C19.3679 30.8826 20 32.4087 20 34C20 35.5913 19.3679 37.1174 18.2426 38.2426C17.1174 39.3679 15.5913 40 14 40H8V28Z" stroke="#7F3F98" stroke-width="4" stroke-linejoin="round"/>
<path d="M8 26V42" stroke="#7F3F98" stroke-width="4" stroke-linecap="round" stroke-linejoin="round"/>
<path d="M2 30H8" stroke="#7F3F98" stroke-width="4" stroke-linecap="round" stroke-linejoin="round"/>
<path d="M2 36H8" stroke="#7F3F98" stroke-width="4" stroke-linecap="round" stroke-linejoin="round"/>
<path d="M20 34H28C28.5304 34 29.0391 33.7893 29.4142 33.4142C29.7893 33.0391 30 32.5304 30 32V21" stroke="#7F3F98" stroke-width="4" stroke-linecap="round" stroke-linejoin="round"/>
<path d="M30 2V9" stroke="#7F3F98" stroke-width="4" stroke-linecap="round" stroke-linejoin="round"/>
<path d="M20.879 5.879L25.121 10.121" stroke="#7F3F98" stroke-width="4" stroke-linecap="round" stroke-linejoin="round"/>
<path d="M20.879 23.121L25.121 18.879" stroke="#7F3F98" stroke-width="4" stroke-linecap="round" stroke-linejoin="round"/>
<path d="M39.121 5.879L34.88 10.12" stroke="#7F3F98" stroke-width="4" stroke-linecap="round" stroke-linejoin="round"/>
<path d="M39.121 23.121L34.88 18.88" stroke="#7F3F98" stroke-width="4" stroke-linecap="round" stroke-linejoin="round"/>
<path d="M30 21C33.3137 21 36 18.3137 36 15C36 11.6863 33.3137 9 30 9C26.6863 9 24 11.6863 24 15C24 18.3137 26.6863 21 30 21Z" stroke="#7F3F98" stroke-width="4"/>
<path d="M18 15H24" stroke="#7F3F98" stroke-width="4" stroke-linecap="round" stroke-linejoin="round"/>
<path d="M36 15H42" stroke="#7F3F98" stroke-width="4" stroke-linecap="round" stroke-linejoin="round"/>
</svg>
