<svg width="25" height="25" viewBox="0 0 25 25" fill="none" xmlns="http://www.w3.org/2000/svg">
<path d="M22.3813 18.5082H20.3795C20.2429 18.5082 20.1147 18.568 20.0293 18.6733C19.83 18.9154 19.6164 19.1489 19.3915 19.371C18.4715 20.2919 17.3817 21.0258 16.1824 21.5321C14.94 22.0569 13.6046 22.3261 12.2559 22.3237C10.892 22.3237 9.57077 22.0561 8.3293 21.5321C7.13005 21.0258 6.04029 20.2919 5.12027 19.371C4.19861 18.4531 3.4637 17.3653 2.95624 16.1676C2.42947 14.9262 2.16466 13.6078 2.16466 12.2439C2.16466 10.88 2.43232 9.56164 2.95624 8.32017C3.46308 7.12141 4.19202 6.04224 5.12027 5.11683C6.04853 4.19143 7.12769 3.46249 8.3293 2.95565C9.57077 2.43173 10.892 2.16407 12.2559 2.16407C13.6198 2.16407 14.941 2.42888 16.1824 2.95565C17.3841 3.46249 18.4632 4.19143 19.3915 5.11683C19.6164 5.34178 19.8271 5.57527 20.0293 5.81445C20.1147 5.9198 20.2457 5.9796 20.3795 5.9796H22.3813C22.5606 5.9796 22.6717 5.78028 22.572 5.62937C20.3881 2.23526 16.5668 -0.0113465 12.2246 4.3106e-05C5.40216 0.0171276 -0.0677044 5.55534 0.000633418 12.3692C0.0689712 19.0748 5.5303 24.4877 12.2559 24.4877C16.5868 24.4877 20.3909 22.244 22.572 18.8584C22.6688 18.7075 22.5606 18.5082 22.3813 18.5082ZM24.9126 12.0645L20.8721 8.87541C20.7212 8.75582 20.502 8.86402 20.502 9.0548V11.2188H11.5611C11.4358 11.2188 11.3333 11.3213 11.3333 11.4466V13.0412C11.3333 13.1665 11.4358 13.269 11.5611 13.269H20.502V15.433C20.502 15.6238 20.7241 15.732 20.8721 15.6124L24.9126 12.4233C24.9398 12.402 24.9618 12.3747 24.977 12.3437C24.9921 12.3126 25 12.2785 25 12.2439C25 12.2093 24.9921 12.1752 24.977 12.1441C24.9618 12.113 24.9398 12.0858 24.9126 12.0645V12.0645Z" fill="#87C76E"/>
</svg>
