<svg width="27" height="23" viewBox="0 0 27 23" fill="none" xmlns="http://www.w3.org/2000/svg">
<path d="M11.2273 15.7727H15.7727M20.8864 21.4545C21.5579 21.4545 22.2229 21.3223 22.8433 21.0653C23.4637 20.8083 24.0274 20.4316 24.5022 19.9568C24.9771 19.4819 25.3538 18.9182 25.6107 18.2978C25.8677 17.6774 26 17.0124 26 16.3409C26 15.6694 25.8677 15.0044 25.6107 14.384C25.3538 13.7636 24.9771 13.1999 24.5022 12.725C24.0274 12.2502 23.4637 11.8735 22.8433 11.6165C22.2229 11.3595 21.5579 11.2273 20.8864 11.2273C19.5301 11.2273 18.2295 11.766 17.2705 12.725C16.3115 13.684 15.7727 14.9847 15.7727 16.3409C15.7727 17.6971 16.3115 18.9978 17.2705 19.9568C18.2295 20.9158 19.5301 21.4545 20.8864 21.4545V21.4545ZM11.2273 5.54545H15.7727H11.2273ZM1.56818 14.0682C1.56818 14.0682 6.11364 3.27273 6.68182 2.13636C7.25 1 8.38636 1 8.95455 1C9.52273 1 11.2273 1 11.2273 3.27273V15.7727L1.56818 14.0682ZM6.11364 21.4545C5.4421 21.4545 4.77715 21.3223 4.15673 21.0653C3.53632 20.8083 2.97259 20.4316 2.49775 19.9568C2.0229 19.4819 1.64624 18.9182 1.38925 18.2978C1.13227 17.6774 1 17.0124 1 16.3409C1 15.6694 1.13227 15.0044 1.38925 14.384C1.64624 13.7636 2.0229 13.1999 2.49775 12.725C2.97259 12.2502 3.53632 11.8735 4.15673 11.6165C4.77715 11.3595 5.4421 11.2273 6.11364 11.2273C7.46986 11.2273 8.77053 11.766 9.72952 12.725C10.6885 13.684 11.2273 14.9847 11.2273 16.3409C11.2273 17.6971 10.6885 18.9978 9.72952 19.9568C8.77053 20.9158 7.46986 21.4545 6.11364 21.4545V21.4545ZM25.4318 14.0682C25.4318 14.0682 20.8864 3.27273 20.3182 2.13636C19.75 1 18.6136 1 18.0455 1C17.4773 1 15.7727 1 15.7727 3.27273V15.7727L25.4318 14.0682Z" stroke="#87C76E" stroke-width="2"/>
</svg>
